<svg width="40" height="40" viewBox="0 0 40 40" fill="none" xmlns="http://www.w3.org/2000/svg">
<path fill-rule="evenodd" clip-rule="evenodd" d="M11.327 13.638C11 14.2798 11 15.1198 11 16.8V21.2C11 22.8802 11 23.7202 11.327 24.362C11.6146 24.9265 12.0735 25.3854 12.638 25.673C13.2798 26 14.1198 26 15.8 26C15.9105 26 16 26.0895 16 26.2V27.5858C16 28.4767 17.0771 28.9229 17.7071 28.2929L19.7071 26.2929C19.8946 26.1054 20.149 26 20.4142 26H24.2C25.8802 26 26.7202 26 27.362 25.673C27.9265 25.3854 28.3854 24.9265 28.673 24.362C29 23.7202 29 22.8802 29 21.2V16.8C29 15.1198 29 14.2798 28.673 13.638C28.3854 13.0735 27.9265 12.6146 27.362 12.327C26.7202 12 25.8802 12 24.2 12H15.8C14.1198 12 13.2798 12 12.638 12.327C12.0735 12.6146 11.6146 13.0735 11.327 13.638Z" fill="#AFAFAF"/>
</svg>
