<svg width="40" height="40" viewBox="0 0 40 40" fill="none" xmlns="http://www.w3.org/2000/svg">
<path d="M13.9999 17C13.9999 13.6863 16.6862 11 19.9999 11C23.3136 11 25.9999 13.6863 25.9999 17V18.831C25.9999 20.2503 26.3857 21.6429 27.1159 22.8599L27.6693 23.7823C28.0364 24.3941 28.2199 24.7 28.2325 24.9497C28.252 25.3366 28.0462 25.6999 27.7045 25.8823C27.4838 26 27.1271 26 26.4137 26H13.5862C12.8728 26 12.5161 26 12.2954 25.8823C11.9537 25.6999 11.748 25.3366 11.7674 24.9497C11.78 24.7 11.9635 24.3941 12.3306 23.7823L12.884 22.8599C13.6142 21.6429 13.9999 20.2503 13.9999 18.831V17Z" fill="#AFAFAF"/>
<path d="M22.35 27C22.4328 27 22.5007 27.0673 22.493 27.1498C22.4484 27.6254 22.1923 28.0746 21.7678 28.4142C21.2989 28.7893 20.663 29 20 29C19.337 29 18.7011 28.7893 18.2322 28.4142C17.8077 28.0746 17.5516 27.6254 17.507 27.1498C17.4993 27.0673 17.5672 27 17.65 27L20 27L22.35 27Z" fill="#AFAFAF"/>
</svg>
