<svg width="40" height="40" viewBox="0 0 40 40" fill="none" xmlns="http://www.w3.org/2000/svg">
<path d="M20.0017 15.2314C20.0017 16.3537 19.5559 17.4299 18.7623 18.2235C17.9688 19.017 16.8925 19.4628 15.7703 19.4628C14.648 19.4628 13.5718 19.017 12.7782 18.2235C11.9847 17.4299 11.5389 16.3537 11.5389 15.2314C11.5389 14.1092 11.9847 13.0329 12.7782 12.2394C13.5718 11.4458 14.648 11 15.7703 11C16.8925 11 17.9688 11.4458 18.7623 12.2394C19.5559 13.0329 20.0017 14.1092 20.0017 15.2314ZM25.9257 19.4628C26.8235 19.4628 27.6845 19.1062 28.3193 18.4714C28.9542 17.8365 29.3108 16.9755 29.3108 16.0777C29.3108 15.1799 28.9542 14.3189 28.3193 13.6841C27.6845 13.0492 26.8235 12.6926 25.9257 12.6926C25.0279 12.6926 24.1669 13.0492 23.532 13.6841C22.8972 14.3189 22.5405 15.1799 22.5405 16.0777C22.5405 16.9755 22.8972 17.8365 23.532 18.4714C24.1669 19.1062 25.0279 19.4628 25.9257 19.4628ZM24.2331 23.8534V23.6943C24.2343 22.7785 23.9373 21.8873 23.3868 21.1554H28.9266C30.0708 21.1554 31 22.0829 31 23.2288C31 23.2288 31 27.0794 25.9223 27.0794C24.9101 27.0794 24.0994 26.9271 23.4511 26.6816C23.8554 25.9408 24.1124 25.1286 24.2077 24.29C24.2179 24.1851 24.2246 24.0954 24.228 24.0209L24.2331 23.8534ZM22.5405 23.6943C22.5405 23.0209 22.2731 22.3751 21.7969 21.899C21.3208 21.4229 20.675 21.1554 20.0017 21.1554H11.5389C10.8655 21.1554 10.2197 21.4229 9.74361 21.899C9.26749 22.3751 9 23.0209 9 23.6943V23.8212C9 23.8212 9 28.772 15.7703 28.772C22.2223 28.772 22.5253 24.2765 22.5405 23.8534V23.8212V23.6943Z" fill="#AFAFAF"/>
</svg>
