<svg width="25" height="25" viewBox="0 0 25 25" fill="none" xmlns="http://www.w3.org/2000/svg">
<path d="M12.9346 13.2085C13.4899 13.2085 13.9401 12.7608 13.9401 12.2085C13.9401 11.6562 13.4899 11.2085 12.9346 11.2085C12.3794 11.2085 11.9292 11.6562 11.9292 12.2085C11.9292 12.7608 12.3794 13.2085 12.9346 13.2085Z" stroke="black" stroke-width="2" stroke-linecap="round" stroke-linejoin="round"/>
<path d="M19.9727 13.2085C20.528 13.2085 20.9782 12.7608 20.9782 12.2085C20.9782 11.6562 20.528 11.2085 19.9727 11.2085C19.4174 11.2085 18.9673 11.6562 18.9673 12.2085C18.9673 12.7608 19.4174 13.2085 19.9727 13.2085Z" stroke="black" stroke-width="2" stroke-linecap="round" stroke-linejoin="round"/>
<path d="M5.89656 13.2085C6.45185 13.2085 6.902 12.7608 6.902 12.2085C6.902 11.6562 6.45185 11.2085 5.89656 11.2085C5.34127 11.2085 4.89111 11.6562 4.89111 12.2085C4.89111 12.7608 5.34127 13.2085 5.89656 13.2085Z" stroke="black" stroke-width="2" stroke-linecap="round" stroke-linejoin="round"/>
</svg>
