<svg width="20" height="22" viewBox="0 0 20 22" fill="none" xmlns="http://www.w3.org/2000/svg">
<path d="M17.3666 4.49287C16.941 4.04575 16.4356 3.69106 15.8794 3.44907C15.3232 3.20707 14.727 3.08252 14.1249 3.08252C13.5229 3.08252 12.9267 3.20707 12.3705 3.44907C11.8143 3.69106 11.3089 4.04575 10.8833 4.49287L9.99994 5.42037L9.1166 4.49287C8.25686 3.59014 7.0908 3.08299 5.87494 3.08299C4.65908 3.08299 3.49301 3.59014 2.63327 4.49287C1.77353 5.3956 1.29053 6.61996 1.29053 7.89662C1.29053 9.17327 1.77353 10.3976 2.63327 11.3004L3.5166 12.2279L9.99994 19.0354L16.4833 12.2279L17.3666 11.3004C17.7924 10.8535 18.1302 10.3228 18.3607 9.7388C18.5912 9.15478 18.7098 8.52879 18.7098 7.89662C18.7098 7.26444 18.5912 6.63846 18.3607 6.05443C18.1302 5.4704 17.7924 4.93978 17.3666 4.49287Z" stroke="#B8152F" stroke-width="2" stroke-linecap="round" stroke-linejoin="round"/>
</svg>
