<svg width="18" height="16" viewBox="0 0 18 16" fill="none" xmlns="http://www.w3.org/2000/svg">
<g id="_&#235;&#160;&#136;&#236;&#157;&#180;&#236;&#150;&#180;_1" clip-path="url(#clip0_337_512)">
<path id="Vector" d="M8.8 0C3.93973 0 0 3.0816 0 6.8851C0 9.35992 1.66828 11.5289 4.17402 12.7424C3.98958 13.4216 3.5077 15.2058 3.41133 15.5873C3.29169 16.0608 3.5858 16.0543 3.78021 15.9276C3.93142 15.8273 6.19124 14.3063 7.16662 13.6502C7.69668 13.7274 8.24169 13.7686 8.8 13.7686C13.6603 13.7686 17.6 10.6869 17.6 6.8851C17.6 3.08325 13.6603 0 8.8 0Z" fill="#371C1D"/>
<g id="Group">
<g id="Group_2">
<path id="Vector_2" d="M2.66048 5.61728H3.56607C3.56607 5.61728 3.57105 8.07895 3.56607 8.65284C3.56607 9.07217 4.50821 9.0771 4.50655 8.65942L4.50987 5.65017C4.50987 5.65017 4.81395 5.65182 5.41048 5.65182C5.97377 5.65182 5.97377 4.77535 5.41048 4.77535C4.77573 4.77535 2.65549 4.75726 2.65549 4.75726C2.12377 4.75726 2.12543 5.61728 2.65549 5.61728" fill="#F9E000"/>
<g id="Clip path group">
<mask id="mask0_337_512" style="mask-type:luminance" maskUnits="userSpaceOnUse" x="2" y="4" width="4" height="5">
<g id="clippath-1">
<path id="Vector_3" d="M2.66048 5.61728H3.56607C3.56607 5.61728 3.57105 8.07895 3.56607 8.65284C3.56607 9.07217 4.50821 9.0771 4.50655 8.65942L4.50987 5.65017C4.50987 5.65017 4.81395 5.65182 5.41048 5.65182C5.97377 5.65182 5.97377 4.77535 5.41048 4.77535C4.77573 4.77535 2.65549 4.75726 2.65549 4.75726C2.12377 4.75726 2.12543 5.61728 2.65549 5.61728" fill="white"/>
</g>
</mask>
<g mask="url(#mask0_337_512)">
<g id="Group_3">
<path id="Vector_4" d="M5.97724 4.75726H2.12891V9.0771H5.97724V4.75726Z" fill="#F9E000"/>
</g>
</g>
</g>
</g>
<g id="Group_4">
<path id="Vector_5" d="M6.99554 5.77677L7.49901 7.33895H6.44886L6.99554 5.77677ZM6.43058 5.04501C6.20792 5.53011 5.40203 7.82404 5.13617 8.43247C4.94342 8.87153 5.7759 9.23001 5.96865 8.79095L6.14977 8.16444H7.80641C7.80641 8.16444 7.74992 8.19075 7.96925 8.76464C8.14705 9.23001 9.00777 8.9077 8.82998 8.44234C8.57575 7.778 7.69508 5.38376 7.53391 5.04501C7.46079 4.88879 7.19493 4.77533 6.93738 4.77533C6.72469 4.77533 6.51699 4.85262 6.42892 5.04501" fill="#F9E000"/>
<g id="Clip path group_2">
<mask id="mask1_337_512" style="mask-type:luminance" maskUnits="userSpaceOnUse" x="5" y="4" width="4" height="5">
<g id="clippath-4">
<path id="Vector_6" d="M6.99554 5.77677L7.49901 7.33895H6.44886L6.99554 5.77677ZM6.43058 5.04501C6.20792 5.53011 5.40203 7.82404 5.13617 8.43247C4.94342 8.87153 5.7759 9.23001 5.96865 8.79095L6.14977 8.16444H7.80641C7.80641 8.16444 7.74992 8.19075 7.96925 8.76464C8.14705 9.23001 9.00777 8.9077 8.82998 8.44234C8.57575 7.778 7.69508 5.38376 7.53391 5.04501C7.46079 4.88879 7.19493 4.77533 6.93738 4.77533C6.72469 4.77533 6.51699 4.85262 6.42892 5.04501" fill="white"/>
</g>
</mask>
<g mask="url(#mask1_337_512)">
<g id="Group_5">
<path id="Vector_7" d="M9.00957 4.77533H4.94189V9.23165H9.00957V4.77533Z" fill="#F9E000"/>
</g>
</g>
</g>
</g>
<g id="Group_6">
<path id="Vector_8" d="M9.14893 5.18807C9.14893 5.96752 9.15392 8.48016 9.15392 8.48016C9.15392 8.48016 9.08081 8.98006 9.51449 8.98006C9.94818 8.98006 10.9069 8.97512 11.3323 8.97512C11.7577 8.97512 11.756 8.07893 11.3307 8.07893C10.9053 8.07893 10.1276 8.07399 10.1276 8.07399C10.1276 8.07399 10.131 5.75046 10.1293 5.18478C10.1293 4.91181 9.88337 4.77533 9.63911 4.77533C9.39486 4.77533 9.14727 4.91346 9.14893 5.18643" fill="#F9E000"/>
<g id="Clip path group_3">
<mask id="mask2_337_512" style="mask-type:luminance" maskUnits="userSpaceOnUse" x="9" y="4" width="3" height="5">
<g id="clippath-7">
<path id="Vector_9" d="M9.14893 5.18807C9.14893 5.96752 9.15392 8.48016 9.15392 8.48016C9.15392 8.48016 9.08081 8.98006 9.51449 8.98006C9.94818 8.98006 10.9069 8.97512 11.3323 8.97512C11.7577 8.97512 11.756 8.07893 11.3307 8.07893C10.9053 8.07893 10.1276 8.07399 10.1276 8.07399C10.1276 8.07399 10.131 5.75046 10.1293 5.18478C10.1293 4.91181 9.88337 4.77533 9.63911 4.77533C9.39486 4.77533 9.14727 4.91346 9.14893 5.18643" fill="white"/>
</g>
</mask>
<g mask="url(#mask2_337_512)">
<g id="Group_7">
<path id="Vector_10" d="M11.7575 4.77533H9.08057V8.97841H11.7575V4.77533Z" fill="#F9E000"/>
</g>
</g>
</g>
</g>
<g id="Group_8">
<path id="Vector_11" d="M11.871 5.0631C11.881 5.40514 11.8594 8.49661 11.8594 8.72518C11.8594 9.08695 12.7899 9.0853 12.7899 8.72518C12.7899 8.30586 12.7899 7.50832 12.7899 7.50832L13.0624 7.29126L14.2571 8.90277C14.498 9.2185 15.2574 8.64789 15.0165 8.33381L13.7486 6.68119C13.7486 6.68119 14.6094 5.76033 14.9483 5.42652C15.1461 5.23248 14.5329 4.62076 14.3352 4.81644C14.1441 5.0039 12.7949 6.3408 12.7949 6.3408C12.7949 6.3408 12.8065 5.50216 12.7949 5.03844C12.7899 4.86249 12.5722 4.77698 12.3479 4.77698C12.1086 4.77698 11.8644 4.874 11.8693 5.0631" fill="#F9E000"/>
<g id="Clip path group_4">
<mask id="mask3_337_512" style="mask-type:luminance" maskUnits="userSpaceOnUse" x="11" y="4" width="5" height="5">
<g id="clippath-10">
<path id="Vector_12" d="M11.871 5.0631C11.881 5.40514 11.8594 8.49661 11.8594 8.72518C11.8594 9.08695 12.7899 9.0853 12.7899 8.72518C12.7899 8.30586 12.7899 7.50832 12.7899 7.50832L13.0624 7.29126L14.2571 8.90277C14.498 9.2185 15.2574 8.64789 15.0165 8.33381L13.7486 6.68119C13.7486 6.68119 14.6094 5.76033 14.9483 5.42652C15.1461 5.23248 14.5329 4.62076 14.3352 4.81644C14.1441 5.0039 12.7949 6.3408 12.7949 6.3408C12.7949 6.3408 12.8065 5.50216 12.7949 5.03844C12.7899 4.86249 12.5722 4.77698 12.3479 4.77698C12.1086 4.77698 11.8644 4.874 11.8693 5.0631" fill="white"/>
</g>
</mask>
<g mask="url(#mask3_337_512)">
<g id="Group_9">
<path id="Vector_13" d="M15.2574 4.62238H11.8594V9.22011H15.2574V4.62238Z" fill="#F9E000"/>
</g>
</g>
</g>
</g>
</g>
</g>
<defs>
<clipPath id="clip0_337_512">
<rect width="17.6" height="16" fill="white"/>
</clipPath>
</defs>
</svg>
