<svg width="11" height="10" viewBox="0 0 11 10" fill="none" xmlns="http://www.w3.org/2000/svg">
<g clip-path="url(#clip0_754_1258)">
<path d="M9.19589 7.04971V8.29971C9.19637 8.41576 9.1726 8.53062 9.12611 8.63694C9.07962 8.74327 9.01144 8.83871 8.92593 8.91716C8.84042 8.99561 8.73947 9.05533 8.62954 9.09251C8.51961 9.12969 8.40313 9.14349 8.28756 9.13305C7.00541 8.99373 5.77381 8.55561 4.69173 7.85388C3.68499 7.21416 2.83145 6.36062 2.19173 5.35388C1.48755 4.26688 1.04933 3.0293 0.912562 1.74138C0.902149 1.62616 0.915843 1.51003 0.95277 1.40039C0.989697 1.29075 1.04905 1.19 1.12705 1.10456C1.20505 1.01911 1.29998 0.950844 1.40581 0.904099C1.51164 0.857354 1.62604 0.833157 1.74173 0.833048H2.99173C3.19394 0.831058 3.38997 0.902664 3.5433 1.03452C3.69662 1.16638 3.79676 1.34948 3.82506 1.54971C3.87782 1.94974 3.97567 2.34252 4.11673 2.72055C4.17279 2.86968 4.18492 3.03176 4.15169 3.18758C4.11846 3.3434 4.04125 3.48643 3.92923 3.59971L3.40006 4.12888C3.99321 5.17203 4.85692 6.03573 5.90006 6.62888L6.42923 6.09972C6.54252 5.98769 6.68554 5.91049 6.84136 5.87725C6.99718 5.84402 7.15926 5.85616 7.30839 5.91221C7.68643 6.05328 8.0792 6.15112 8.47923 6.20388C8.68163 6.23244 8.86648 6.33438 8.99862 6.49034C9.13076 6.64629 9.20097 6.84537 9.19589 7.04971Z" stroke="black" stroke-linecap="round" stroke-linejoin="round"/>
</g>
<defs>
<clipPath id="clip0_754_1258">
<rect width="10" height="10" fill="white" transform="translate(0.0292969)"/>
</clipPath>
</defs>
</svg>
